<svg xmlns="http://www.w3.org/2000/svg" viewBox="51 371 893 288">
  <path fill="#5B4FE8" fill-rule="evenodd" d="M 485,521 L 485,554 L 606,554 L 606,521 Z M 485,447 L 486,481 L 604,480 L 604,447 L 487,446 Z M 637,380 L 637,554 L 758,554 L 758,521 L 673,520 L 673,373 L 667,373 L 662,375 L 657,375 L 653,377 L 648,377 L 644,379 L 639,379 Z M 485,373 L 485,406 L 606,406 L 605,372 Z M 844,372 L 842,376 L 841,381 L 839,384 L 839,386 L 837,389 L 836,394 L 834,397 L 833,402 L 831,405 L 829,413 L 827,416 L 825,424 L 823,427 L 823,429 L 821,432 L 820,437 L 818,440 L 817,445 L 815,448 L 815,451 L 813,454 L 813,456 L 811,459 L 810,464 L 807,470 L 807,472 L 805,475 L 805,478 L 801,486 L 801,489 L 797,497 L 796,502 L 794,505 L 793,510 L 791,513 L 789,521 L 785,529 L 785,532 L 783,535 L 781,543 L 779,546 L 777,552 L 777,554 L 814,553 L 816,549 L 816,546 L 820,538 L 822,530 L 826,522 L 828,514 L 832,506 L 834,498 L 838,490 L 838,487 L 842,479 L 844,471 L 848,463 L 849,458 L 852,452 L 852,450 L 854,444 L 856,441 L 857,436 L 861,433 L 863,437 L 863,439 L 865,442 L 865,444 L 867,447 L 867,450 L 869,453 L 870,458 L 872,461 L 872,463 L 875,469 L 876,474 L 878,477 L 879,482 L 881,485 L 881,488 L 885,496 L 887,504 L 889,507 L 889,509 L 893,517 L 893,520 L 897,528 L 897,530 L 900,536 L 902,544 L 905,549 L 905,552 L 907,554 L 944,554 L 943,550 L 941,547 L 940,542 L 938,539 L 938,537 L 935,528 L 933,525 L 933,523 L 930,514 L 928,511 L 928,509 L 926,506 L 924,498 L 922,495 L 922,493 L 918,485 L 917,480 L 914,474 L 912,466 L 910,463 L 908,455 L 906,452 L 906,450 L 902,442 L 902,439 L 900,436 L 900,434 L 896,426 L 894,418 L 890,410 L 888,402 L 884,394 L 884,392 L 882,386 L 880,383 L 879,378 L 877,375 L 877,373 L 875,371 Z M 289,371 L 289,374 L 293,382 L 293,384 L 296,390 L 297,395 L 299,398 L 301,406 L 303,409 L 303,411 L 306,417 L 307,422 L 311,430 L 311,432 L 314,438 L 315,443 L 317,446 L 318,451 L 322,459 L 323,464 L 325,467 L 325,470 L 327,473 L 327,475 L 331,483 L 331,486 L 333,489 L 333,491 L 337,499 L 339,507 L 343,515 L 344,520 L 346,523 L 349,534 L 351,537 L 351,539 L 353,542 L 353,544 L 355,547 L 355,549 L 357,554 L 396,553 L 396,551 L 398,548 L 398,546 L 400,544 L 400,541 L 402,538 L 404,530 L 406,528 L 408,520 L 410,517 L 410,515 L 412,512 L 413,507 L 415,504 L 416,499 L 418,496 L 418,494 L 420,491 L 420,489 L 422,486 L 422,484 L 426,476 L 426,473 L 428,470 L 428,468 L 430,465 L 430,463 L 432,460 L 432,458 L 436,450 L 436,447 L 438,444 L 438,442 L 440,439 L 440,437 L 442,434 L 442,432 L 446,424 L 448,416 L 450,413 L 450,411 L 454,403 L 456,395 L 458,392 L 458,390 L 462,382 L 463,377 L 465,374 L 464,371 L 429,371 L 427,373 L 427,375 L 425,378 L 425,380 L 423,383 L 423,385 L 419,393 L 418,398 L 416,401 L 415,406 L 411,414 L 409,422 L 407,425 L 407,427 L 403,435 L 401,443 L 399,446 L 399,448 L 397,451 L 397,453 L 393,461 L 391,469 L 389,472 L 389,474 L 385,482 L 385,484 L 382,490 L 381,495 L 376,500 L 374,493 L 372,490 L 372,488 L 368,480 L 368,478 L 365,472 L 364,467 L 362,464 L 362,462 L 358,454 L 358,452 L 355,446 L 354,441 L 352,438 L 351,433 L 348,428 L 347,423 L 345,420 L 344,415 L 342,412 L 342,410 L 338,402 L 337,397 L 335,394 L 334,389 L 332,386 L 332,384 L 330,381 L 330,379 L 328,376 L 327,372 Z M 268,371 L 257,373 L 252,375 L 248,375 L 243,377 L 238,377 L 233,379 L 233,554 L 269,553 Z M 51,372 L 52,554 L 85,553 L 87,436 L 100,453 L 104,460 L 113,471 L 117,478 L 121,482 L 127,492 L 138,507 L 141,510 L 143,514 L 170,551 L 173,554 L 201,554 L 200,371 L 167,371 L 166,373 L 167,380 L 164,486 L 82,373 L 80,371 Z"/>
  <path fill="#F0607A" fill-rule="evenodd" d="M 130,585 L 130,659 L 145,659 L 146,635 L 156,636 L 157,639 L 160,642 L 168,655 L 172,659 L 190,659 L 188,655 L 181,647 L 177,640 L 173,636 L 173,632 L 177,630 L 182,625 L 184,621 L 186,614 L 186,605 L 184,598 L 181,593 L 176,589 L 167,585 Z M 146,598 L 161,598 L 166,601 L 170,606 L 170,614 L 168,618 L 166,620 L 160,623 L 145,622 Z M 52,585 L 52,659 L 67,658 L 68,628 L 100,629 L 100,659 L 115,658 L 114,585 L 100,585 L 100,612 L 98,614 L 80,613 L 72,614 L 67,612 L 67,586 L 65,584 Z M 837,510 L 837,513 L 841,521 L 843,523 L 844,527 L 846,529 L 858,553 L 860,554 L 862,552 L 864,548 L 864,546 L 868,541 L 874,528 L 876,526 L 879,519 L 881,517 L 884,511 Z"/>
</svg>